<svg version="1" xmlns="http://www.w3.org/2000/svg" width="666.667" height="666.667" viewBox="0 0 500.000000 500.000000"><path d="M137.1 137.5L24.7 250l112.6 112.7L250 475.5l112.7-112.8L475.5 250 363 137.5C301.1 75.7 250.3 25.1 250 25.1c-.3 0-51.1 50.6-112.9 112.4zm215.1 10.1l102.5 102.6-102.3 102.2-102.2 102.3-102.4-102.3L45.4 250.1l102-102.4C203.6 91.4 249.6 45.3 249.6 45.2c.1-.1 46.3 46 102.6 102.4z"/><path d="M171.2 141.3c-38.6 38.6-70.2 70.5-70.2 71 0 .4 4.4.7 9.8.7h9.7l53-53c29.1-29.2 53.3-53 53.7-53 .4 0 .8 23.7.8 52.7v52.8h14.5l.2-70.8c.2-38.9-.1-70.7-.5-70.7s-32.3 31.6-71 70.3zM257.7 126.7l.3 55.8h34.5l.3-7.2.3-7.2-10.1-.3-10.1-.3.1-41V85.6l-7.2-7.3c-4-4-7.5-7.3-7.8-7.3-.3 0-.4 25.1-.3 55.7zM307.7 151.7l.2 30.8 30.6.3c16.8.1 30.5-.1 30.5-.6 0-.4-3-3.8-6.7-7.5l-6.8-6.6-16.3-.3-16.4-.3.1-15.9.2-16-7.3-7.3c-4-4-7.5-7.3-7.8-7.3-.3 0-.4 13.8-.3 30.7zM257.7 205.2l.1 7.3 60.8.2 60.8.3 15.1 15 15 15h9.8c5.3 0 9.7-.3 9.7-.8 0-.4-9.8-10.5-21.8-22.5L385.5 198h-128l.2 7.2zM77.7 234.8c-3.7 3.7-6.7 7.1-6.7 7.5 0 .4 38.6.6 85.8.5l85.7-.3.3-7.3.3-7.2H84.4l-6.7 6.8zM71 258c0 .3 10 10.5 22.3 22.8l22.2 22.2 63.5-.2 63.5-.3.3-7.3.3-7.2H121.6l-15-14.9-15.1-14.9-10.3-.4c-5.6-.2-10.2-.1-10.2.2zM342.5 257.7l-85 .3.2 7.3.1 7.2 78.3.3 78.3.2 7.3-7.2c6.6-6.6 8.7-9.2 6.6-8.6-.5.2-39 .4-85.8.5zM388 287.7l-9.6.4-52.4 52.4c-28.9 28.9-52.7 52.5-53 52.5-.3 0-.4-23.6-.2-52.5l.3-52.5h-15.6v70.5c0 38.8.2 70.5.5 70.5.8 0 141-140.4 141-141.3 0-.4-.3-.6-.7-.5-.5.1-5.1.4-10.3.5zM131 317.7c0 .5 3.3 4.1 7.3 8.1l7.3 7.3 16-.1 15.9-.2.1 16.2.2 16.2 6.8 6.9c3.8 3.8 7.2 6.9 7.6 6.9.4 0 .7-13.7.8-30.5l.1-30.5h-29.5c-16.2 0-30.1-.3-31-.6-.9-.3-1.6-.2-1.6.3zM207.7 325.2l.1 7.3 9.9.1 9.8.2.2 41.3.2 41.2 6.8 6.9c3.7 3.7 7.1 6.8 7.5 6.8.4 0 .8-25 .8-55.5V318h-35.5l.2 7.2z"/></svg>